<svg width="1422" height="377" viewBox="0 0 1422 377" fill="none" xmlns="http://www.w3.org/2000/svg">
<path d="M282.459 29.9543C294.259 29.9293 306.059 29.995 317.858 30.1515C322.886 30.1687 334.372 29.8905 338.911 30.6726C338.864 37.2817 324.338 72.0627 321.105 80.7815L263.018 234.751L239.559 296.42C236.69 303.981 229.966 323.061 226.334 329.497C223.842 331.682 175.816 331.173 169.601 330.771C168.86 330.726 168.119 330.674 167.38 330.613C164.888 328.4 143.015 295.935 139.818 290.904C132.559 279.483 117.115 259.495 110.862 248.307C89.2845 219.197 67.1774 184.074 46.4556 153.906C79.3902 154.013 112.723 152.272 146.297 152.529C150.821 151.927 154.311 151.995 158.853 152.006C173.658 113.155 192.465 69.0122 205.626 30.1489C213.355 29.7042 224.238 30.0073 232.214 29.9977L282.459 29.9543Z" fill="#226471"/>
<path d="M146.297 152.53C150.821 151.927 154.311 151.995 158.853 152.006C169.851 168.797 180.753 185.652 191.559 202.567C195.861 209.376 202.789 221.704 207.021 227.644L181.481 293.92C177.364 304.613 170.72 320.171 167.38 330.613C164.888 328.4 143.015 295.935 139.818 290.904C132.559 279.483 117.115 259.495 110.862 248.307C89.2845 219.197 67.1774 184.074 46.4556 153.906C79.3902 154.013 112.723 152.272 146.297 152.53Z" fill="#D7A544"/>
<path d="M46.4556 153.906C79.3902 154.013 112.723 152.272 146.297 152.529C150.818 152.971 152.62 152.786 157.047 152.357C145.199 180.171 130.473 207.525 117.716 234.977C115.662 239.399 113.315 244.119 110.862 248.307C89.2845 219.197 67.1774 184.074 46.4556 153.906Z" fill="#E7BA64"/>
<path d="M205.626 30.1489C213.355 29.7042 224.238 30.0073 232.214 29.9977L282.459 29.9543C282.937 31.7425 272.878 56.3895 271.63 59.6045L228.046 172.757C221.921 188.738 213.711 212.697 207.021 227.643C202.789 221.704 195.861 209.376 191.559 202.567C180.753 185.651 169.851 168.797 158.853 152.006C173.658 113.155 192.465 69.0122 205.626 30.1489Z" fill="#80C3A4"/>
<path d="M55.2165 29.9509C91.4812 29.7788 127.747 29.8536 164.01 30.1753C163.389 32.5708 162.63 34.5198 161.753 36.8161C154.339 56.2007 146.204 75.403 139.07 94.8857C136.871 100.255 134.781 105.669 132.8 111.123L46.1769 111.333C46.1528 100.524 44.58 39.8188 47.6265 34.4335C49.3012 31.4731 52.1816 30.7897 55.2165 29.9509Z" fill="#80C3A4"/>
<path d="M1018.12 73.1942L1029.14 72.9805C1028.98 85.093 1029.17 97.2818 1029.05 109.391C1028.99 116.481 1029.45 125.064 1028.3 131.95C1029.92 129.984 1031.65 128.104 1033.46 126.317C1039.91 120.231 1048.48 116.914 1057.35 117.079C1093.98 118.012 1105.1 170.076 1080.62 193.294C1074.39 199.453 1066.03 202.985 1057.27 203.163C1044.46 203.342 1036.82 196.793 1028.33 188.598L1027.54 201.105L1012.28 201.147L1012.25 117.12C1012.25 106.577 1011.65 83.2997 1012.69 74.4207C1013.8 73.2677 1016.39 73.3399 1018.12 73.1942ZM1055.11 187.939C1062.87 185.774 1067.69 183.787 1071.81 176.158C1081.14 158.897 1073.84 129.573 1049.76 132.621C1019.44 139 1022.44 189.493 1055.11 187.939Z" fill="#0A1C34"/>
<path d="M743.721 117.491C750.93 115.715 765.494 119.503 771.273 124.219C785.907 136.082 782.736 157.44 783.069 174.236C783.256 183.647 783.208 191.615 784.366 201.168L767.901 201.075C767.076 197.027 766.861 194.345 766.541 190.279C752.81 203.201 736.026 209.523 719.804 195.772C715.058 190.914 712.664 185.557 712.609 178.754C712.366 149.521 745.462 151.857 765.577 151.616C764.862 143.359 763.988 140.972 758.999 134.618C745.657 128.984 735.783 131.757 724.002 139.153C721.656 134.442 720.213 131.395 718.423 126.459C728.165 120.318 732.397 119.196 743.721 117.491ZM733.702 167.975C729.108 175.162 728.588 178.112 732.702 185.796C736.546 188.014 738.441 188.947 742.909 189.346C750.43 188.567 756.696 186.879 761.768 180.626C762.767 179.374 763.745 178.096 764.682 176.794C765.445 171.556 765.334 168.356 765.237 163.052L752.907 163.308C745.955 163.746 740.064 164.714 733.702 167.975Z" fill="#0A1C34"/>
<path d="M1327.19 117.487C1334.53 114.934 1350.23 119.975 1355.91 125.217C1369.86 138.094 1366.39 157.782 1366.74 174.792C1366.92 183.786 1367.25 192.249 1367.82 201.162L1352.05 201.095C1351.11 197.052 1350.62 193.898 1350.03 189.824C1336.73 204.17 1320.04 208.415 1303.57 196.013C1298.96 191.443 1295.8 185.266 1296.07 178.625C1297.23 149.53 1328.38 151.874 1349.12 151.761C1348.78 146.916 1348.33 142 1345.23 138.089C1336.17 126.633 1317.67 131.966 1307.83 139.342C1305.83 135.005 1303.75 130.942 1301.56 126.694C1311.68 120.835 1315.51 119.284 1327.19 117.487ZM1317.89 167.574C1309 179.247 1313.3 188.163 1327.73 189.473C1345.47 186.935 1349.32 179.671 1349 163.08L1335.46 163.313C1328.27 163.925 1324.62 164.897 1317.89 167.574Z" fill="#0A1C34"/>
<path d="M950.703 117.529C950.834 117.503 950.959 117.478 951.091 117.452C992.451 115.917 989.6 149.912 988.947 179.364C988.781 186.917 989.662 194.646 990.446 201.128L974.252 201.149C973.419 196.945 973.142 194.121 972.774 189.899C958.952 204.219 941.794 208.981 925.377 195.275C920.902 190.82 918.702 184.963 918.73 178.707C918.848 149.488 951.605 151.805 971.893 151.847C971.185 147.475 970.762 142.966 968.243 139.215C959.507 126.177 941.037 132.02 930.269 139.084C928.132 135.462 926.078 130.625 924.302 126.734C933.689 120.943 939.441 118.542 950.703 117.529ZM950.599 189.201C967.549 188.152 971.837 178.175 971.289 163.06L956.566 163.35C950.259 164.156 942.467 165.107 938.63 170.686C930.99 181.804 939.816 188.623 950.599 189.201Z" fill="#0A1C34"/>
<path d="M377.881 81.9019C384.185 81.7839 390.491 81.7936 396.794 81.9317C402.745 94.2093 410.281 116.708 415.994 129.891C419.516 138.022 433.371 171.247 434.521 177.848C446.857 146.46 460.691 113.315 472.279 82.1343C478.436 81.6424 485.444 81.847 491.688 81.8908C489.497 88.1974 486.369 95.4469 483.868 101.74C479.105 111.244 472.858 127.452 468.564 137.686L442.109 201.07C437.669 201.242 432.289 201.07 427.771 201.032C425.449 197.179 420.675 185.207 418.756 180.668L401.53 139.546L386.353 103.17C383.778 97.0043 379.681 87.9165 377.881 81.9019Z" fill="#0A1C34"/>
<path d="M850.275 81.965C870.764 81.2137 897.665 81.7971 918.328 81.9719C918.21 87.032 918.397 92.6269 918.473 97.7285C902.536 97.2547 884.53 97.4642 868.606 97.6966C868.613 108.17 869.051 122.959 868.301 133.088L910.05 133.168C910.237 137.277 910.563 141.944 910.092 146.06C909.883 147.88 909.023 147.875 907.587 148.228C896.721 147.544 879.895 148.03 868.62 148.036L868.523 201.086H850.386C849.581 186.985 850.109 167.668 850.102 153.065C850.088 129.63 849.782 105.314 850.275 81.965Z" fill="#0A1C34"/>
<path d="M619.151 118.97L635.47 118.604C635.999 130.471 635.21 142.738 635.492 154.634C635.721 164.304 634.181 175.341 641.051 183.253C647.93 191.178 662.02 187.719 668.741 181.418C671.898 178.428 674.132 174.596 675.181 170.376C676.734 164.069 675.838 128.614 676.094 118.987C681.664 118.742 687.731 118.744 693.346 118.633L693.416 148.631C693.252 166.037 693.438 183.732 693.474 201.161L677.459 201.156L676.576 188.476C669.339 195.844 664.345 200.926 653.964 202.85C638.094 205.791 621.512 195.653 619.333 179.423C618.316 171.837 616.737 122.364 619.151 118.97Z" fill="#0A1C34"/>
<path d="M568.071 117.472C568.285 117.403 568.503 117.346 568.723 117.303C577.596 115.484 590.048 120.335 597.592 125.39L592.513 137.533C585.687 133.308 560.38 123.442 559.679 141.454C559.284 151.629 586.287 152.444 592.155 159.585C595.135 163.213 600.88 166.845 600.873 173.699C602.018 194.309 588.561 201.025 571.684 203.177C560.964 203.357 548.783 200.306 540.6 193.103C542.275 189.231 544.281 185.13 546.084 181.285C556.73 187.413 584.894 197.736 583.338 177.051C582.336 163.734 543.905 166.271 542.642 146.306C541.493 128.142 551.315 120.01 568.071 117.472Z" fill="#0A1C34"/>
<path d="M1250.83 117.484C1261.21 114.367 1275.79 121.276 1284.23 126.993C1282.26 131.47 1280.27 135.93 1278.23 140.372C1257.77 124.909 1233.55 131.53 1231.27 158.809C1229.05 185.43 1258.81 196.974 1277.2 180.045C1280.78 180.146 1283.82 189.212 1285.08 192.186C1277.91 197.826 1271.19 201.512 1261.95 202.857C1250.53 204.44 1238.94 201.455 1229.7 194.548C1220.87 187.847 1215.09 177.889 1213.65 166.896C1210.23 141.668 1225.22 120.871 1250.83 117.484Z" fill="#0A1C34"/>
<path d="M807.139 73.6146C812.87 73.471 818.608 73.4044 824.339 73.4141C824.242 109.631 824.707 162.575 824.013 199.789C823.576 200.309 823.201 200.753 822.889 201.124L806.695 201.104C806.521 196.361 806.618 190.909 806.757 186.116C807.812 149.037 805.119 110.519 807.139 73.6146Z" fill="#0A1C34"/>
<path d="M742.972 267.981C753.539 267.75 769.837 266.638 777.636 274.184C789.327 285.5 787.787 303.075 777.511 314.488C766.111 322.292 756.314 320.73 742.77 320.734C743.596 303.231 742.257 285.252 742.972 267.981ZM749.737 314.952C760.796 315.172 763.884 316.012 773.098 309.994C777.511 303.889 780.412 297.748 779.142 289.883C778.365 284.957 775.652 280.546 771.6 277.636C764.925 272.813 757.334 273.309 749.57 273.436C749.966 280.906 750.34 307.574 749.737 314.952Z" fill="#5E5E5E"/>
<path d="M1151.77 117.489C1154.58 116.741 1159.38 117.07 1161.54 119.274C1163.82 123.501 1161.31 130.665 1160.18 135.488C1153.46 134.817 1144.81 133.929 1139.5 138.682C1126.21 150.568 1130.72 184.377 1130.26 201.14C1126.79 201.156 1116.82 201.542 1114.05 200.614L1113.42 198.927C1112.64 173.287 1113.24 145.105 1113.02 119.136C1118.02 118.954 1123.23 118.948 1128.24 118.87C1129.1 125.036 1129.09 129.074 1129.03 135.311C1135.61 125.53 1139.16 119.113 1151.77 117.489Z" fill="#0A1C34"/>
<path d="M1176.95 118.788C1182.76 118.878 1188.57 118.918 1194.39 118.909C1195.15 136.565 1194.07 155.045 1194.47 172.811C1194.68 181.869 1194.69 192.166 1194.12 201.11L1176.61 201.083C1176.06 186.57 1176.49 170.322 1176.38 155.677C1176.29 145.168 1175.93 128.768 1176.95 118.788Z" fill="#0A1C34"/>
<path d="M505.643 118.926L521.88 118.736C522.366 125.201 522.306 199.513 521.677 201.063L504.502 200.93C504.488 179.749 504.192 142.672 504.689 119.971C505.063 119.561 505.381 119.213 505.643 118.926Z" fill="#0A1C34"/>
<path d="M1263.27 263.78L1267.1 264.286C1267.8 265.161 1267.7 314.776 1267.45 320.077L1266.67 320.762C1259.49 321.561 1263.02 320.642 1261.35 316.743C1251.63 319.045 1254.46 324.892 1241.27 319.064C1224.83 303.795 1239.63 270.725 1261.05 287.305C1261.35 280.48 1260.48 271.584 1261.66 264.853C1261.73 264.401 1262.71 264.063 1263.27 263.78ZM1253.89 316.104C1257.74 314.139 1258.94 313.084 1261.02 309.217C1261.14 304.381 1261.39 299.252 1261.03 294.447C1257.06 288.253 1255.73 287.836 1248.41 288.066C1236.6 295.487 1238.69 317.565 1253.89 316.104Z" fill="#5E5E5E"/>
<path d="M584.964 283.126C598.217 282.572 604.601 291.136 603.885 304.302C603.262 315.743 594.273 323.818 582.552 320.534C580.71 320.019 580.47 317.767 577.63 317.457C576.48 318.996 576.964 323.762 577.025 325.955C577.234 329.279 578.023 334.058 576.144 336.597C574.02 337.439 572.165 337.554 570.626 335.828C569.779 327.149 570.056 294.179 570.631 285.05C571.608 283.454 571.112 283.937 573.076 283.229C575.1 283.84 575.993 285.785 577.153 287.607C579.956 285.835 582.011 284.628 584.964 283.126ZM591.011 315.709C598.416 310.062 597.878 302.841 596.42 294.277C591.541 288.056 590.634 287.928 582.797 288.593C572.944 295.561 573.006 319.114 591.011 315.709Z" fill="#5E5E5E"/>
<path d="M539.44 283.099C543.333 282.779 547.016 282.822 550.56 284.58C554.954 286.73 558.294 290.562 559.821 295.208C563.59 306.4 558.754 317.264 547.42 321.071C526.923 322.946 524.129 308.958 527.042 292.275C530.757 287.205 533.66 285.213 539.44 283.099ZM532.439 308.779C536.652 315.042 538.268 316.909 546.18 316.228C558.695 310.604 558.251 287.501 540.627 287.893C531.193 290.716 531.759 300.933 532.439 308.779Z" fill="#5E5E5E"/>
<path d="M871.555 283.14C891.323 281.956 889.63 296.764 889.811 311.893C889.845 314.903 889.72 317.5 889.186 320.474C887.493 321.381 887.028 321.041 884.954 320.967C883.177 319.537 883.601 319.516 882.948 317.034C875.212 317.423 876.336 325.617 863.347 319.168C862.424 318.149 861.626 317.028 860.96 315.825C851.198 298.035 876.183 300.437 882.4 297.341C883.219 295.617 882.06 290.699 880.936 289.812C876.385 286.231 867.954 290.552 862.764 289.104L862.57 287.983C865.012 284.202 867.129 284.156 871.555 283.14ZM872.277 316.818C878.105 316.011 882.803 313.367 883.392 305.959C883.517 304.399 882.414 303.509 881.304 302.538C879.868 302.508 878.563 302.429 877.141 302.694C872.908 303.21 870.57 303.043 867.829 306.608C863.923 311.7 866.511 315.676 872.277 316.818Z" fill="#5E5E5E"/>
<path d="M1094.15 283.165C1103.45 282.244 1105.62 283.595 1111.4 290.263C1112.06 294.998 1113.14 316.723 1111.73 320.493C1109.59 320.982 1109.14 320.888 1107.01 320.325L1106.64 316.48L1105.97 316.018C1098.07 321.226 1095.11 323.868 1086.01 318.932C1083.64 315.793 1080.76 309.904 1082.73 305.679C1086.72 297.092 1103.4 301.089 1106.39 294.37C1105.31 284.533 1091.8 290.292 1085.35 289.047L1085.05 288.066C1087.72 284.537 1090.01 284.111 1094.15 283.165ZM1098.4 316.519C1106.01 312.931 1106.31 310.352 1106.15 302.263L1097.52 302.608C1085.54 305.297 1086.1 317.27 1098.4 316.519Z" fill="#5E5E5E"/>
<path d="M641.112 283.167C653.992 281.738 659.127 287.842 659.361 300.744C659.476 307.084 659.782 314.044 658.737 320.299C657.033 321.526 657.749 321.22 655.534 321.341C653.702 320.309 653.464 319.403 652.647 317.515C647.896 316.715 644.018 326.414 632.595 318.177C630.359 315.338 630.515 313.887 629.654 310.685C626.145 297.619 650.238 299.869 652.756 296.5C652.114 282.213 639.886 291.683 632.779 288.837L632.577 287.686C634.719 284.304 637.313 284.065 641.112 283.167ZM645.961 316.338C650.389 314.374 658.603 307.125 650.388 302.436C649.655 302.017 644.505 302.553 643.233 302.673C631.988 306.658 633.63 317.444 645.961 316.338Z" fill="#5E5E5E"/>
<path d="M804.981 283.188C825.595 281.459 822.244 297.244 822.5 312.185C822.549 314.975 822.299 317.757 821.931 320.517C820.585 321.283 820.564 321.009 818.781 320.99C816.63 319.609 817.158 319.749 816.006 317.105C810.032 317.211 808.485 326.538 796.092 318.375C795.933 318.196 795.787 318.013 795.635 317.825C794.039 315.776 792.394 309.995 792.783 307.645C794.399 297.958 813.82 299 815.971 297.461C818.878 282.441 800.034 291.32 796.155 288.848C795.94 284.571 801.657 283.971 804.981 283.188ZM807.77 316.495C811.558 315.363 813.078 314.363 815.985 311.584C816.186 308.991 816.894 305.106 815.513 303.115C813.779 301.844 810.573 302.451 808.263 302.628C796.238 305.573 796.495 316.413 807.77 316.495Z" fill="#5E5E5E"/>
<path d="M1208.61 283.127C1215.13 282.705 1220.37 283.799 1223.85 289.742C1225.76 293.003 1228.26 296.037 1227.44 300.056C1221.8 308.358 1203.56 297.967 1201.27 306.959C1202.89 315.629 1209.75 317.025 1217.3 315.963C1217.94 315.709 1218.58 315.464 1219.22 315.227C1221.68 314.338 1222.01 314.285 1224.02 315.224C1225.55 322.128 1207.86 322.788 1202.8 319.141C1189.59 309.625 1191.75 287.453 1208.61 283.127ZM1200.5 298.692C1205.17 298.711 1209.84 298.702 1214.51 298.664C1216.46 298.566 1219.19 298.508 1221.07 298.3C1218.37 289.16 1217.88 287.602 1207.75 287.957C1203.39 290.312 1201.99 294.018 1200.5 298.692Z" fill="#5E5E5E"/>
<path d="M961.221 312.108C964.836 299.055 971.463 284.399 976.299 271.598C977.319 268.889 980.448 266.236 983.487 268.171C984.035 270.941 982.495 273.159 981.26 276.151C976.798 289.483 971.358 302.584 966.495 315.772C964.76 320.47 962.47 322.004 957.454 319.752C953.263 311.598 948.864 295.441 945.041 286.425C944.305 284.685 938.734 269.41 938.47 267.995C941.114 267.907 942.702 267.69 945.173 268.706C946.866 270.574 959.223 306.685 961.221 312.108Z" fill="#5E5E5E"/>
<path d="M400.447 268.02C406.301 268.052 424.025 267.395 428.498 268.797C429.132 270.842 429.194 270.086 428.471 271.97C425.003 274.442 411.747 273.435 406.634 273.476L406.665 290.859C412.252 290.797 419.967 290.501 425.375 290.906C426.698 292.97 426.465 292.121 426.62 294.407C422.442 298.42 412.103 294.06 407.056 297.163C406.785 297.329 406.722 299.667 406.684 300.21L406.623 314.947C411.294 314.909 425.928 314.384 429.397 315.935C429.438 318.055 429.824 318.686 428.758 320.213C424.015 321.082 406.545 320.675 400.331 320.703C400.588 303.317 400.411 285.445 400.447 268.02Z" fill="#5E5E5E"/>
<path d="M469.544 263.696C470.56 263.83 471.391 264.24 472.328 264.64C474.139 268.165 473.035 284.107 472.899 288.955C500.653 264.291 500.366 316.506 496.091 320.987C493.306 321.136 494.323 321.376 491.923 320.123C490.676 318.581 490.993 298.793 490.535 293.803C489.9 291.836 489.377 290.495 487.525 289.312C485.801 288.195 483.709 287.796 481.695 288.198C477.034 289.149 475.774 291.039 473.36 294.744C472.792 303.052 473.641 311.415 473.139 318.905C471.776 320.916 472.502 320.321 470.061 321.177C467.804 320.7 468.5 321.151 467.057 319.489C466.458 314.529 466.284 268.303 467.302 264.601L469.544 263.696Z" fill="#5E5E5E"/>
<path d="M1066.76 309.047C1067.08 303.128 1066.6 297.566 1066.67 291.686C1066.71 287.387 1067.01 284.398 1071.54 283.333L1072.56 284.014C1073.69 286.556 1073.13 291.035 1072.99 293.967C1072.87 298.859 1075.28 321.345 1070.24 321.833C1068.56 320.552 1068.07 318.67 1067.29 316.689C1066.19 315.974 1057.99 321.788 1053.38 321.529C1038.93 320.717 1042.42 294.722 1042.3 283.665C1045.02 283.509 1046.11 283.398 1048.8 283.914C1051.07 288.815 1045.4 310.894 1052.68 315.034C1058.72 318.466 1063.47 314.177 1066.76 309.047Z" fill="#5E5E5E"/>
<path d="M1159.71 283.726C1163.58 283.679 1185.03 282.87 1187.08 284.493C1187.62 290.106 1170.42 310.223 1166.18 315.23C1173.2 315.559 1180.82 314.345 1186.62 315.641C1188.6 317.49 1188.03 317.356 1188.41 320.638C1182.25 320.43 1163.03 321.571 1158.91 319.861C1157.23 314.468 1175.65 293.661 1179.55 288.717C1172.84 288.478 1167.21 289.801 1160.82 288.136C1159.19 286.418 1159.68 286.569 1159.71 283.726Z" fill="#5E5E5E"/>
<path d="M837.397 272.435C840.526 272.436 840.145 271.954 842.31 273.564C843.676 275.995 843.121 280.799 843.017 283.778C846.82 283.805 850.428 282.669 852.537 286.164L851.67 287.502C849.318 289.168 845.48 288.682 842.497 288.607C842.865 295.824 841.97 308.69 844.551 314.644C848.86 318.153 850.4 311.498 854.487 318.312C853.342 320.006 851.961 320.821 849.97 321.138C829.529 324.402 838.07 301.107 836.141 289.625C835.801 287.6 832.887 289.306 830.32 287.674C830.022 285.195 829.779 285.96 830.847 284.007C832.721 283.581 833.671 283.69 835.552 283.786C837.591 281.201 834.83 275.776 837.397 272.435Z" fill="#5E5E5E"/>
<path d="M442.068 272.609C443.635 272.509 444.977 272.269 446.341 273.046C448.253 275.484 447.45 280.213 447.288 283.593C450.88 283.515 455.975 282.502 457.216 286.55L455.999 287.972C453.648 289.268 449.987 288.786 447.193 288.671C447.544 295.544 446.502 305.374 447.97 311.894C449.614 319.199 454.863 313.951 458.509 315.991C458.411 317.09 458.23 319.966 457.514 320.37C454.672 321.846 447.031 321.802 444.537 319.35C438.242 313.16 441.9 298.209 441.051 289.67C439.446 287.867 438.245 289.195 434.716 287.999C433.999 285.978 434.127 286.732 434.655 284.439C437.026 282.831 436.847 284.371 440.483 283.402C442.312 281.274 439.999 276.467 442.068 272.609Z" fill="#5E5E5E"/>
<path d="M695.734 283.097C700.05 282.959 706.891 282.514 708.973 286.957L708.362 288.491C704.352 290.401 698.218 285.759 693.817 289.544C692.697 291.301 692.453 291.687 692.666 293.743C694.839 298.932 702.263 298.863 706.149 301.999C716.21 310.117 709.66 319.324 699.086 321.423C695.353 321.39 688.174 321.038 685.928 317.705C685.696 315.324 685.494 316.183 686.623 314.187C690.544 313.066 698.746 319.996 703.811 314.284C704.865 311.658 705.33 308.712 702.714 306.844C696.539 302.436 684.834 302.674 686.336 292.171C687.095 286.861 690.861 284.502 695.734 283.097Z" fill="#5E5E5E"/>
<path d="M1017.35 283.149C1022.21 282.712 1026.62 282.783 1030.86 285.45C1031.36 287.486 1031.45 286.781 1030.84 288.635C1028.56 289.502 1012.77 284.793 1015.07 293.817C1016.45 299.238 1031.81 300.241 1032.9 308.029C1034.17 317.055 1029.2 319.596 1021.84 321.374C1017.74 321.274 1012.41 321.102 1009.05 318.597C1007.86 316.519 1008.05 317.421 1008.44 314.915C1011.49 313.374 1021.86 319.657 1026.98 313.432C1028.94 304.526 1010.91 303.457 1008.38 294.834C1006.59 288.75 1012.91 284.988 1017.35 283.149Z" fill="#5E5E5E"/>
<path d="M1181.87 79.5716C1187.86 77.6909 1194.25 80.9826 1196.19 86.9522C1198.14 92.921 1194.92 99.3428 1188.96 101.35C1185.06 102.668 1180.75 101.786 1177.67 99.0417C1174.6 96.2974 1173.24 92.1135 1174.11 88.0857C1174.97 84.0572 1177.94 80.8064 1181.87 79.5716Z" fill="#0A1C34"/>
<path d="M509.78 79.6195C515.819 77.6736 522.288 81.018 524.192 87.0708C526.095 93.1229 522.704 99.5669 516.638 101.427C510.631 103.269 504.264 99.92 502.379 93.9276C500.495 87.9352 503.799 81.5453 509.78 79.6195Z" fill="#0A1C34"/>
<path d="M1124.31 264.183C1126.69 264.102 1127.9 263.953 1130.22 264.632C1130.53 266.802 1130.65 268.959 1130.61 271.149C1130.35 287.743 1130.83 304.346 1130.67 320.939C1128.2 320.997 1126.43 321.17 1124.53 319.992C1123.93 315.636 1124.19 305.484 1124.2 300.74L1124.31 264.183Z" fill="#5E5E5E"/>
<path d="M509.17 283.695C511.43 283.519 513.606 283.073 515.509 284.211C516.294 286.895 515.707 315.585 515.654 320.774C513.724 320.862 512.321 320.774 510.419 320.653C508.248 318.468 509.275 289.552 509.17 283.695Z" fill="#5E5E5E"/>
<path d="M613.522 283.58C615.726 283.554 618.016 283.248 619.798 284.433C620.996 290.947 619.971 313.204 620.072 320.95C617.756 321.061 616.931 321.149 614.626 320.57C612.471 317.737 613.475 289.201 613.522 283.58Z" fill="#5E5E5E"/>
<path d="M1145.07 282.6C1146.85 282.959 1147.26 283.121 1148.91 283.91C1149.8 287.622 1149.09 314.308 1148.82 319.903C1148.79 320.575 1148.17 320.81 1147.51 321.298C1145.8 321.052 1144.54 320.998 1143.09 320.003C1141.93 311.668 1143.11 295.471 1142.9 286.482C1142.84 284.151 1143.65 283.764 1145.07 282.6Z" fill="#5E5E5E"/>
<path d="M993.756 282.584C995.525 282.876 996.552 282.904 997.87 284.151C998.765 289.457 998.085 313.114 997.683 319.77C997.641 320.468 996.871 320.667 996.143 321.048C994.554 320.996 993.825 320.867 992.264 320.557C991.924 320.024 991.653 319.52 991.647 318.635C991.529 307.393 991.376 295.532 992.222 284.341C992.847 283.627 993.36 283.041 993.756 282.584Z" fill="#5E5E5E"/>
<path d="M674.129 266.996C676.837 266.815 678.791 266.43 680.728 268.011C682.14 272.064 677.152 280.58 675.114 285.647C673.483 286.461 673.134 286.68 671.335 286.641C669.889 283.416 673.271 271.644 674.129 266.996Z" fill="#5E5E5E"/>
<path d="M902.633 311.608C904.95 311.543 906.31 311.602 908.621 311.813L909.044 313.15C908.156 318.084 904.645 325.542 901.682 329.64C901.016 329.832 899.621 329.944 898.879 330.031L898.06 329.145C898.407 324.642 901.086 316.069 902.633 311.608Z" fill="#5E5E5E"/>
<path d="M1282.67 311.84C1285.24 311.299 1287.77 312.923 1288.34 315.485C1288.91 318.047 1287.32 320.591 1284.76 321.193C1283.08 321.588 1281.31 321.05 1280.14 319.784C1278.97 318.519 1278.57 316.721 1279.09 315.076C1279.61 313.432 1280.98 312.196 1282.67 311.84Z" fill="#5E5E5E"/>
<path d="M614.268 267.497C615.571 266.64 617.239 266.562 618.615 267.296C619.993 268.028 620.859 269.454 620.876 271.014C620.892 272.574 620.056 274.018 618.694 274.78C616.691 275.901 614.159 275.235 612.967 273.273C611.775 271.312 612.35 268.759 614.268 267.497Z" fill="#5E5E5E"/>
<path d="M510.292 267.485C512.217 266.208 514.808 266.696 516.137 268.584C517.466 270.473 517.05 273.076 515.198 274.456C513.954 275.382 512.305 275.561 510.892 274.922C509.479 274.282 508.525 272.926 508.4 271.38C508.275 269.834 509 268.342 510.292 267.485Z" fill="#5E5E5E"/>
<path d="M992.694 267.44C994.019 266.562 995.726 266.498 997.114 267.274C998.502 268.05 999.341 269.536 999.293 271.126C999.237 272.716 998.3 274.144 996.864 274.827C994.852 275.787 992.431 275.024 991.334 273.08C990.238 271.135 990.828 268.672 992.694 267.44Z" fill="#5E5E5E"/>
<path d="M1143.77 267.581C1145.64 266.394 1148.12 266.86 1149.43 268.646C1150.74 270.431 1150.45 272.929 1148.75 274.363C1147.55 275.384 1145.88 275.649 1144.42 275.049C1142.96 274.449 1141.96 273.085 1141.82 271.513C1141.68 269.942 1142.43 268.424 1143.77 267.581Z" fill="#5E5E5E"/>
</svg>
